<?xml version="1.0" encoding="UTF-8" standalone="no"?><!DOCTYPE svg PUBLIC "-//W3C//DTD SVG 1.1//EN" "http://www.w3.org/Graphics/SVG/1.1/DTD/svg11.dtd"><svg width="100%" height="100%" viewBox="0 0 541 541" version="1.1" xmlns="http://www.w3.org/2000/svg" xmlns:xlink="http://www.w3.org/1999/xlink" xml:space="preserve" xmlns:serif="http://www.serif.com/" style="fill-rule:evenodd;clip-rule:evenodd;stroke-linejoin:round;stroke-miterlimit:2;"><rect id="LogoTransparentWhite" x="0.232" y="0.036" width="540" height="540" style="fill:none;"/><g><path d="M408.752,281.982l-33.577,0.086c-1.246,0.004 -2.442,-0.568 -3.323,-1.589c-0.882,-1.02 -1.378,-2.406 -1.378,-3.851l0,-71.168c0,-10.172 -1.862,-30.195 -17.839,-47.571c-16.79,-18.259 -48.516,-33.295 -107.865,-32.85c-47.355,0.355 -75.117,13.425 -91.301,29.33c-23.104,22.708 -21.767,50.746 -21.767,50.746c0.006,0.115 0.009,0.23 0.009,0.345l0,25.719l27.1,-0.075c1.661,-0.005 3.255,0.757 4.431,2.118c1.177,1.361 1.837,3.209 1.837,5.135l0,78.899c0,11.121 1.864,33.029 18.131,52.027c17.149,20.028 49.601,36.397 110.221,35.908c48.319,-0.389 76.678,-14.629 93.191,-32.057c23.502,-24.805 22.141,-55.449 22.141,-55.449c-0.007,-0.143 -0.011,-0.286 -0.011,-0.429l0,-35.274Z" style="fill:#fff;"/><path d="M48.806,282.034l-12.313,0c-2.59,0 -4.69,-2.435 -4.69,-5.44l0,-213.55c0,-2.999 2.093,-5.432 4.678,-5.44l433.315,-1.332c1.246,-0.004 2.443,0.567 3.325,1.588c0.882,1.02 1.378,2.406 1.378,3.852l-0,169.357l27.909,0c3.454,0 6.254,3.248 6.254,7.254l-0,236.748c-0,3.998 -2.789,7.242 -6.236,7.253l-447.349,1.477c-1.661,0.006 -3.257,-0.756 -4.433,-2.117c-1.177,-1.361 -1.838,-3.209 -1.838,-5.136l-0,-194.514Zm10.658,-25.532c9.985,4.173 17.002,14.033 17.002,25.532l0,174.036l404.535,-1.336l0,-196.004l-6.502,0c-15.277,0 -27.661,-12.384 -27.661,-27.661l0,-147.066l-387.374,1.191l-0,171.308Z" style="fill:#fff;"/></g></svg>